<?xml version="1.0" standalone="no"?><!DOCTYPE svg PUBLIC "-//W3C//DTD SVG 1.1//EN" "http://www.w3.org/Graphics/SVG/1.1/DTD/svg11.dtd"><svg t="1591089134542" class="icon" viewBox="0 0 1024 1024" version="1.1" xmlns="http://www.w3.org/2000/svg" p-id="4563" xmlns:xlink="http://www.w3.org/1999/xlink" width="200" height="200"><defs><style type="text/css"></style></defs><path d="M985.6 444.928c0-61.952-44.544-114.176-103.424-126.464 6.656-17.408 11.264-35.328 11.264-54.272 0-83.456-68.096-151.04-151.04-151.04-56.32 0-108.032 31.744-133.632 80.896-23.552-23.04-56.832-37.376-91.648-37.376-73.728 0-133.632 59.904-133.632 133.632v2.56c-26.112 11.264-47.104 29.696-61.44 52.736H79.872c-23.04 0-41.472 18.432-41.472 41.472v309.76c0 23.04 18.432 41.472 41.472 41.472h58.88v67.584H107.52c-7.168 0-12.8 5.632-12.8 12.8v48.64c0 24.064 19.456 43.52 43.52 43.52h586.752c24.064 0 43.52-19.456 43.52-43.52v-48.64c0-7.168-5.632-12.8-12.8-12.8h-31.232v-48.128h64.512c23.04 0 41.472-18.432 41.472-41.472v-141.824h25.6a130.048 130.048 0 0 0 129.536-129.536zM79.872 712.192c-8.704 0-15.872-7.168-15.872-15.872V387.072c0-8.704 7.168-15.872 15.872-15.872h229.888c-5.12 13.824-7.68 29.184-7.68 44.544v33.28H187.904a49.152 49.152 0 0 0-49.152 49.152v214.528H79.872z m663.04 155.136c0 9.728-8.192 17.92-17.92 17.92H138.24c-9.728 0-17.92-8.192-17.92-17.92v-35.84h622.592v35.84z m-578.56-61.44V498.176c0-13.312 10.752-23.552 23.552-23.552h487.424c12.8 0 23.552 10.752 23.552 23.552v307.712H164.352z m640.512-89.6c0 8.704-7.168 15.872-15.872 15.872h-64.512v-157.696h80.384v141.824z m51.2-167.936h-131.584v-50.176a49.152 49.152 0 0 0-49.152-49.152h-348.16v-33.28c0-46.08 29.184-87.552 72.704-102.4 1.024-0.512 1.536-1.536 2.56-2.048 2.048-1.024 3.072-2.048 4.096-3.584 1.024-1.536 1.024-2.56 1.536-4.608 0-1.024 1.024-2.048 1.024-3.072 0-3.072-0.512-6.144-0.512-9.728 0-59.392 48.64-108.032 108.032-108.032 34.304 0 66.56 15.872 84.992 41.984 1.024 1.024 2.048 1.024 3.072 2.048 1.024 1.024 1.536 2.048 3.072 2.56h1.024c1.536 0.512 3.072 0 4.608 0s3.072 0 4.608-1.024c0.512 0 1.024 0 1.024-0.512 1.024-1.024 1.536-2.048 2.048-3.072 1.024-1.024 2.048-1.536 2.56-2.56 17.92-49.152 65.536-82.432 117.76-82.432a125.6448 125.6448 0 0 1 111.104 183.808c-0.512 1.024 0 1.536 0 2.56 0 1.024-1.024 1.536-1.024 2.56 0 1.024 0.512 1.536 0.512 2.048 0 1.536 0.512 3.072 1.536 4.608 1.024 1.536 1.536 2.56 3.072 3.584 0.512 0.512 1.024 1.536 1.536 2.048 1.536 0.512 3.072 1.024 4.608 1.024 0.512 0 0.512 0.512 0.512 0.512 53.76 4.096 96.256 49.152 96.256 103.424 0.512 56.32-46.08 102.912-103.424 102.912z" fill="#1296db" p-id="4564"></path></svg>