<?xml version="1.0" encoding="UTF-8"?>
<svg width="392px" height="69px" viewBox="0 0 392 69" version="1.1" xmlns="http://www.w3.org/2000/svg" xmlns:xlink="http://www.w3.org/1999/xlink">
    <!-- Generator: Sketch 59.1 (86144) - https://sketch.com -->
    <title>logo02</title>
    <desc>Created with Sketch.</desc>
    <g id="页面-1" stroke="none" stroke-width="1" fill="none" fill-rule="evenodd">
        <g id="logo02" transform="translate(1.000000, 1.000000)" fill-rule="nonzero">
            <g id="混合云平台" fill="#1296DB">
                <path d="M59.1733871,-0.487231183 C66.4318673,-0.487231183 72.3615591,5.42860627 72.3615591,12.7009409 C72.3615591,14.0685477 72.0953271,15.425756 71.5787224,16.9026134 C76.5316703,18.2002044 80.1034908,22.7004727 80.1034908,27.8857012 C80.0788358,34.1603238 74.9983615,39.2407981 68.7217742,39.265457 L67.0712366,39.265457 L67.0712366,50.6794355 C67.0712366,52.8910617 65.2989918,54.6633065 63.0873656,54.6633065 L58.1680108,54.6633065 L58.1680108,57.7063172 L60.2916667,57.7063172 C61.1699596,57.7063172 61.8669355,58.4032931 61.8669355,59.281586 L61.8669355,63.3676075 C61.8669355,65.6652553 60.0086693,67.5235215 57.7110215,67.5235215 L8.42069892,67.5235215 C6.12305117,67.5235215 4.26478495,65.6652553 4.26478495,63.3676075 L4.26478495,59.281586 C4.26478495,58.4032931 4.96176085,57.7063172 5.84005376,57.7063172 L7.96370968,57.7063172 L7.96370968,53.0288978 L3.51747312,53.0288978 C1.30584687,53.0288978 -0.466397849,51.2566531 -0.466397849,49.0450269 L-0.466397849,23.0235215 C-0.466397849,20.8118953 1.30584687,19.0396505 3.51747312,19.0396505 L23.5876311,19.0396505 C24.7973437,17.193144 26.4880048,15.7290176 28.5233488,14.7853085 C28.5820847,8.36576837 33.8153975,3.1686828 40.2486559,3.1686828 C43.0277919,3.1686828 45.7524406,4.21197918 47.8184176,6.0093371 L47.988748,5.72717089 C50.3625406,1.90555767 54.6074226,-0.487231183 59.1733871,-0.487231183 Z M59.1733871,0.512768817 C54.6506632,0.512768817 50.4656746,3.05613207 48.3910377,7.03943495 L48.0797087,7.63718655 L47.5979336,7.16588475 C45.6705059,5.28035771 42.9848754,4.1686828 40.2486559,4.1686828 C34.3312499,4.1686828 29.5228495,8.97708324 29.5228495,14.8944892 L29.5228495,15.4383938 L29.220895,15.5686486 C27.1511795,16.4614671 25.4540878,17.926658 24.2860874,19.8038015 L24.1393369,20.0396505 L3.51747312,20.0396505 C1.85813162,20.0396505 0.533602151,21.36418 0.533602151,23.0235215 L0.533602151,49.0450269 C0.533602151,50.7043684 1.85813162,52.0288978 3.51747312,52.0288978 L8.96370968,52.0288978 L8.96370968,58.7063172 L5.84005376,58.7063172 C5.5140456,58.7063172 5.26478495,58.9555779 5.26478495,59.281586 L5.26478495,63.3676075 C5.26478495,65.1129705 6.67533592,66.5235215 8.42069892,66.5235215 L57.7110215,66.5235215 C59.4563845,66.5235215 60.8669355,65.1129705 60.8669355,63.3676075 L60.8669355,59.281586 C60.8669355,58.9555779 60.6176748,58.7063172 60.2916667,58.7063172 L57.1680108,58.7063172 L57.1680108,53.6633065 L63.0873656,53.6633065 C64.7467071,53.6633065 66.0712366,52.338777 66.0712366,50.6794355 L66.0712366,38.265457 L68.7198095,38.2654608 C74.4452182,38.2429639 79.0810015,33.6071805 79.1034946,27.8837366 C79.1034946,22.983986 75.5953976,18.7475644 70.8131755,17.7495354 L70.2387152,17.6296481 L70.4482967,17.0815119 C71.0532607,15.4992982 71.3615591,14.0970377 71.3615591,12.7009409 C71.3615591,5.98141534 65.8801055,0.512768817 59.1733871,0.512768817 Z M59.7163978,59.8568548 L59.7163978,63.3676075 C59.7163978,64.4112566 58.8853956,65.2896975 57.8589217,65.3673994 L57.7110215,65.3729839 L8.42069892,65.3729839 C7.37704982,65.3729839 6.49860899,64.5419816 6.42090703,63.5155078 L6.41532258,63.3676075 L6.41532258,59.8568548 L59.7163978,59.8568548 Z M58.7163978,60.8568548 L7.41532258,60.8568548 L7.41532258,63.3676075 C7.41532258,63.8700222 7.81567532,64.3062617 8.30607303,64.3660183 L8.42069892,64.3729839 L57.7110215,64.3729839 C58.2134362,64.3729839 58.6496756,63.9726311 58.7094322,63.4822334 L58.7163978,63.3676075 L58.7163978,60.8568548 Z M12.5927419,29.8783602 L53.5389785,29.8783602 C54.8363332,29.8783602 55.9269475,30.9170803 56.0121209,32.19582 L56.0174731,32.3568548 L56.0174731,58.7063172 L10.1142473,58.7063172 L10.1142473,32.3568548 C10.1142473,31.0307549 11.1406921,29.9665862 12.4302341,29.8835745 L12.5927419,29.8783602 L53.5389785,29.8783602 L12.5927419,29.8783602 Z M53.5389785,30.8783602 L12.5927419,30.8783602 C11.8249452,30.8783602 11.1927429,31.4566362 11.1210229,32.2130395 L11.1142473,32.3568548 L11.1142473,57.7063172 L55.0174731,57.7063172 L55.0174731,32.3568548 C55.0174731,31.6047358 54.4156799,30.9587003 53.6786437,30.8852986 L53.5389785,30.8783602 Z M64.9206989,38.265457 L64.9206989,50.6794355 C64.9206989,51.6363944 64.1752266,52.4297147 63.2370239,52.5066543 L63.0873656,52.5127688 L57.1680108,52.5127688 L57.1680108,38.265457 L64.9206989,38.265457 Z M63.9206989,39.265457 L58.1680108,39.265457 L58.1680108,51.5127688 L63.0873656,51.5127688 C63.5074029,51.5127688 63.8620459,51.1904364 63.9141209,50.7829452 L63.9206989,50.6794355 L63.9206989,39.265457 Z M23.5476781,21.1901882 L23.2981755,21.8638453 C22.9391469,22.8332226 22.7332273,23.9121918 22.6918999,25.0168405 L22.6841398,25.4321237 L22.6841398,28.7278226 L12.5927419,28.7278226 C10.6531363,28.7278226 9.06892863,30.2494623 8.96874001,32.1641207 L8.96370968,32.3568548 L8.96370968,50.8783602 L3.01747312,50.8783602 L3.01747312,50.7654366 L2.87612867,50.7186502 C2.22831147,50.4743234 1.75139828,49.8719681 1.69068904,49.1568844 L1.68413978,49.0020161 L1.68413978,23.0235215 C1.68413978,22.0665626 2.42961215,21.2732423 3.36781481,21.1963026 L3.51747312,21.1901882 L23.5476781,21.1901882 Z M22.1376287,22.1901882 L3.51747312,22.1901882 C3.09743581,22.1901882 2.74279282,22.5125206 2.69071779,22.9200118 L2.68413978,23.0235215 L2.68413978,49.0020161 C2.68413978,49.4220534 3.00647221,49.7766964 3.41396343,49.8287715 L3.51747312,49.8353495 L4.01747312,49.8353495 L4.01747312,49.8783602 L7.96370968,49.8783602 L7.96370968,32.3568548 C7.96370968,29.871326 9.92265891,27.8433343 12.3808512,27.732586 L12.5927419,27.7278226 L21.6841398,27.7278226 L21.6841398,25.4321237 C21.6841398,24.4563831 21.8018763,23.4896642 22.0320931,22.5775957 L22.1376287,22.1901882 Z M59.0873656,1.7063172 L59.4187217,1.71194013 C63.1534497,1.8311848 66.5850186,3.83190043 68.525682,7.04249106 C70.445228,10.2181454 70.6387392,14.1351077 69.0685838,17.4666421 L68.9162136,17.7772179 L68.9206989,17.8622312 C68.9206989,17.9725489 68.9022099,18.0497742 68.8649872,18.1264346 C68.8725112,18.1637156 68.8776882,18.2057521 68.8776882,18.249328 C68.8776882,18.2660511 68.8827477,18.286804 68.896098,18.3137472 L68.9227456,18.3590746 L69.0085237,18.4882539 L69.0409453,18.5213813 L69.1183383,18.5839466 L69.1625552,18.6315335 L69.2012815,18.6816992 L69.2606937,18.6942457 L69.3688197,18.7024333 C69.4258813,18.7114757 69.4796481,18.7292126 69.5288574,18.7542523 C74.2424735,19.1988791 77.9106437,23.1788265 77.9106437,27.9222391 C77.9547216,32.8513775 73.9529472,36.9266359 68.9886234,37.0681103 L68.7217742,37.0719086 L57.1680108,37.0719086 L57.1680108,32.3568548 C57.1680108,30.4172492 55.646371,28.8330415 53.7317126,28.7328529 L53.5389785,28.7278226 L23.7916667,28.7278226 L23.7916667,25.4321237 C23.7916667,21.4324033 26.2693519,17.8407455 29.9133363,16.4764003 L30.153167,16.3903982 L30.212416,16.3331848 C30.2494287,16.2992366 30.2831434,16.2727016 30.3236131,16.2477308 L30.4424623,16.1825943 C30.4714239,16.1648874 30.4908772,16.1478753 30.5108073,16.1232326 L30.5491207,16.0686088 L30.5900172,15.8995181 C30.5977724,15.8057465 30.6230327,15.739332 30.6722454,15.6391349 L30.6700212,15.5884345 L30.6428635,15.219141 L30.6316515,14.9983967 C30.6307827,14.9643268 30.6303763,14.930333 30.6303763,14.8944892 C30.6303763,9.62909956 34.9402555,5.31922043 40.2056452,5.31922043 C43.1451298,5.31922043 45.9141114,6.63555696 47.5302787,8.76167484 L47.69,8.981 L47.7728914,9.02425753 C47.8185849,9.04995289 47.8572014,9.07575883 47.8965351,9.10877423 L47.957048,9.16459177 L48.0335771,9.24715422 L48.1056945,9.25885728 L48.0961777,9.25496936 L48.0987808,9.25231481 L48.2784473,9.23442305 L48.4146807,9.23213645 L48.4443867,9.22986781 L48.4925397,9.19907519 L48.5326251,9.12249535 L48.6262853,8.99254876 L48.6906816,8.93223348 L48.7556431,8.87715917 L48.8635722,8.60007455 C50.4991708,4.56546571 54.4365371,1.82998615 58.7899214,1.71040168 L59.0873656,1.7063172 Z M59.0868332,2.70631722 L58.8024961,2.71044822 C54.7358489,2.82842156 51.0641694,5.4634044 49.6421061,9.35465518 C49.6056758,9.42751579 49.5637066,9.48551875 49.512675,9.53932029 L49.4288903,9.61820357 L49.3819596,9.65713473 C49.3498879,9.71687714 49.3197485,9.76680628 49.2857424,9.81378396 C49.2296098,10.0443231 49.0705903,10.1218986 48.8580588,10.1415646 C48.7912246,10.1717124 48.7224732,10.1934414 48.6512668,10.2080762 L48.4802416,10.2301833 L48.3346774,10.2331989 L48.1499857,10.2501481 C48.0818737,10.2549586 48.0237839,10.255106 47.9661931,10.2484805 L47.8789907,10.2331989 L47.8615591,10.2331989 L47.7034453,10.2075406 C47.5650466,10.1614077 47.4672172,10.0976203 47.3743324,10.0067564 L47.2616631,9.88434632 L47.1895221,9.84718048 C47.1122654,9.80390293 47.0480899,9.75381249 46.9369462,9.63444375 C45.4864765,7.57961168 42.9322323,6.31922043 40.2056452,6.31922043 C35.4925402,6.31922043 31.6303763,10.1813843 31.6303763,14.8944892 L31.6319207,14.9913653 L31.6369786,15.0965929 L31.6704362,15.5703055 L31.6733871,15.7116935 C31.6733871,15.8160818 31.6588882,15.8828915 31.6243355,15.9647983 L31.5828925,16.0536883 L31.5862149,16.0170631 L31.5873656,15.9697581 L31.5724368,16.0910259 L31.526027,16.2935709 L31.4886246,16.4129422 C31.4599445,16.4894223 31.4227632,16.5615978 31.3743585,16.6342049 C31.2635437,16.8004272 31.1435882,16.9224624 30.9798796,17.0256251 L30.8653728,17.0920506 L30.8117404,17.1445137 C30.749315,17.2021288 30.6899497,17.242597 30.5606439,17.3031896 C27.2066666,18.4474877 24.9117199,21.5959954 24.7962355,25.1506762 L24.7916667,25.4321237 L24.7916667,27.7278226 L53.5389785,27.7278226 C56.0245073,27.7278226 58.052499,29.6867718 58.1632474,32.1449641 L58.1680108,32.3568548 L58.1680108,36.0719086 L68.7217742,36.0719086 C73.2557071,36.0719086 76.9505191,32.3898095 76.9106227,27.9267473 C76.9106227,23.7332069 73.6927893,20.2064537 69.5412623,19.7605599 L69.2859396,19.7371303 L68.8239247,19.7019292 L68.8239247,19.6127228 L68.6237264,19.546559 L68.4965701,19.416126 L68.4447367,19.3474119 L68.4132759,19.3008716 L68.3225729,19.2205022 L68.2435039,19.1333366 L68.1700703,19.0343815 L68.0906953,18.9137748 C67.9698128,18.7324512 67.8975714,18.5386424 67.8812424,18.3372103 C67.8516533,18.2563565 67.8346774,18.1754945 67.8346774,18.0772849 C67.8346774,17.9537047 67.8578792,17.871652 67.9046268,17.7854008 C67.8932256,17.6647884 67.9133255,17.543912 67.9774989,17.4157174 C69.603525,14.3021992 69.4869062,10.5658425 67.6698764,7.55978861 C65.9079971,4.64497454 62.7950435,2.82656206 59.405391,2.71204297 L59.0868332,2.70631722 Z" id="形状"></path>
            </g>
            <path d="M79.6034946,27.8837366 C79.6034946,22.6794355 75.8615591,18.2923387 70.9153226,17.2600806 C71.4744624,15.7977151 71.8615591,14.2923387 71.8615591,12.7009409 C71.8615591,5.69018817 66.141129,0.0127688172 59.1733871,0.0127688172 C54.4422043,0.0127688172 50.0981183,2.67943548 47.9475806,6.80846774 C45.969086,4.87298387 43.1733871,3.6686828 40.2486559,3.6686828 C34.0551075,3.6686828 29.0228495,8.70094086 29.0228495,14.8944892 L29.0228495,15.109543 C26.8293011,16.0557796 25.0658602,17.6041667 23.8615591,19.5396505 L3.51747312,19.5396505 C1.58198925,19.5396505 0.0336021505,21.0880376 0.0336021505,23.0235215 L0.0336021505,49.0450269 C0.0336021505,50.9805108 1.58198925,52.5288978 3.51747312,52.5288978 L8.46370968,52.5288978 L8.46370968,58.2063172 L5.84005376,58.2063172 C5.23790323,58.2063172 4.76478495,58.6794355 4.76478495,59.281586 L4.76478495,63.3676075 C4.76478495,65.3891129 6.39919355,67.0235215 8.42069892,67.0235215 L57.7110215,67.0235215 C59.7325269,67.0235215 61.3669355,65.3891129 61.3669355,63.3676075 L61.3669355,59.281586 C61.3669355,58.6794355 60.8938172,58.2063172 60.2916667,58.2063172 L57.6680108,58.2063172 L57.6680108,54.1633065 L63.0873656,54.1633065 C65.0228495,54.1633065 66.5712366,52.6149194 66.5712366,50.6794355 L66.5712366,38.765457 L68.7217742,38.765457 C74.7217898,38.741881 79.5799187,33.8837522 79.6034946,27.8837366 Z M3.51747312,50.3353495 C2.78629032,50.3353495 2.18413978,49.7331989 2.18413978,49.0020161 L2.18413978,23.0235215 C2.18413978,22.2923387 2.78629032,21.6901882 3.51747312,21.6901882 L22.8293011,21.6901882 C22.3991935,22.8514785 22.1841398,24.1418011 22.1841398,25.4321237 L22.1841398,28.2278226 L12.5927419,28.2278226 C10.3123404,28.2278226 8.46370968,30.0764533 8.46370968,32.3568548 L8.46370968,50.3783602 L3.51747312,50.3783602 L3.51747312,50.3353495 Z M59.2163978,63.3676075 C59.2163978,64.1848118 58.5282258,64.8729839 57.7110215,64.8729839 L8.42069892,64.8729839 C7.60349462,64.8729839 6.91532258,64.1848118 6.91532258,63.3676075 L6.91532258,60.3568548 L59.2163978,60.3568548 L59.2163978,63.3676075 L59.2163978,63.3676075 Z M10.6142473,58.2063172 L10.6142473,32.3568548 C10.6142473,31.2385753 11.5174731,30.3783602 12.5927419,30.3783602 L53.5389785,30.3783602 C54.6142473,30.3783602 55.5174731,31.281586 55.5174731,32.3568548 L55.5174731,58.2063172 L10.6142473,58.2063172 Z M64.4206989,50.6794355 C64.4206989,51.4106183 63.8185484,52.0127688 63.0873656,52.0127688 L57.6680108,52.0127688 L57.6680108,38.765457 L64.4206989,38.765457 L64.4206989,50.6794355 L64.4206989,50.6794355 Z M68.7217742,36.5719086 L57.6680108,36.5719086 L57.6680108,32.3568548 C57.6680108,30.0764533 55.81938,28.2278226 53.5389785,28.2278226 L24.2916667,28.2278226 L24.2916667,25.4321237 C24.2916667,21.5611559 26.7432796,18.0772849 30.3991935,16.8299731 C30.4852151,16.7869624 30.5282258,16.7009409 30.6142473,16.6579301 C30.7862903,16.5719086 30.8723118,16.4858871 30.9583333,16.3568548 C31.0443548,16.2278226 31.0443548,16.1418011 31.0873656,15.9697581 C31.0873656,15.8837366 31.1733871,15.7977151 31.1733871,15.7116935 C31.1733871,15.453629 31.1303763,15.1955645 31.1303763,14.8944892 C31.1303763,9.90524194 35.2163978,5.81922043 40.2056452,5.81922043 C43.0873656,5.81922043 45.797043,7.15255376 47.3454301,9.34610215 C47.4314516,9.43212366 47.5174731,9.43212366 47.6034946,9.51814516 C47.6895161,9.60416667 47.7325269,9.69018817 47.8615591,9.73319892 L47.9475806,9.73319892 C48.0766129,9.77620968 48.2056452,9.73319892 48.3346774,9.73319892 C48.4637097,9.73319892 48.5927419,9.73319892 48.7217742,9.64717742 C48.7647849,9.64717742 48.8077957,9.64717742 48.8077957,9.60416667 C48.8938172,9.51814516 48.936828,9.43212366 48.9798387,9.34610215 C49.0658602,9.26008065 49.1518817,9.21706989 49.1948925,9.13104839 C50.7002688,5.00201613 54.7002688,2.2063172 59.0873656,2.2063172 C62.7745693,2.21416916 66.1903934,4.14560301 68.0977792,7.30113984 C70.005165,10.4566767 70.127583,14.3788323 68.4206989,17.6471774 C68.3776882,17.7331989 68.4206989,17.7762097 68.4206989,17.8622312 C68.4206989,17.9482527 68.3346774,17.9912634 68.3346774,18.0772849 C68.3346774,18.1633065 68.3776882,18.2063172 68.3776882,18.249328 C68.3776882,18.3783602 68.4206989,18.5073925 68.5067204,18.6364247 C68.5927419,18.765457 68.6357527,18.8514785 68.7647849,18.9375 C68.8077957,18.9805108 68.8508065,19.0665323 68.8938172,19.109543 C69.0228495,19.1525538 69.1518817,19.1955645 69.280914,19.1955645 C69.3239247,19.1955645 69.3239247,19.2385753 69.3239247,19.2385753 C73.8400538,19.5826613 77.4102974,23.3676075 77.4102974,27.9267473 C77.452957,32.6579301 73.5389785,36.5719086 68.7217742,36.5719086 L68.7217742,36.5719086 Z" id="形状" fill="#1296DB"></path>
            <path d="M110.37117,13 C114.287624,13 117.650056,13.8338747 120.458565,15.5016491 C123.267075,17.1694235 125.39275,19.540332 126.835655,22.6144459 C128.278552,25.6885598 129,29.2990118 129,33.4459103 C129,36.5110092 128.604925,39.2966014 127.814763,41.8027704 C127.024601,44.3089395 125.839377,46.4815211 124.259053,48.3205805 C122.678729,50.1596398 120.737709,51.5659582 118.435933,52.5395778 C116.134157,53.5131975 113.497461,54 110.525766,54 C107.571248,54 104.925963,53.4996752 102.589833,52.4990106 C100.253702,51.4983459 98.3040932,50.0875201 96.7409471,48.2664908 C95.1778009,46.4454614 93.9968703,44.2548501 93.1981198,41.694591 C92.3993693,39.134332 92,36.3667695 92,33.3918206 C92,30.3447517 92.4165464,27.5501446 93.2496518,25.0079156 C94.0827572,22.4656865 95.2894536,20.3021197 96.8697772,18.5171504 C98.4501008,16.732181 100.373944,15.3664295 102.641365,14.4198549 C104.908786,13.4732802 107.485362,13 110.37117,13 Z M121,33.3888889 C121,30.4073925 120.563554,27.824085 119.690647,25.6388889 C118.817741,23.4536928 117.571351,21.8009315 115.951439,20.6805556 C114.331527,19.5601796 112.472433,19 110.374101,19 C108.880088,19 107.499407,19.3101821 106.232014,19.9305556 C104.964622,20.550929 103.873506,21.4536978 102.958633,22.6388889 C102.04376,23.82408 101.321945,25.3379537 100.793165,27.1805556 C100.264386,29.0231574 100,31.0925811 100,33.3888889 C100,35.7037153 100.264386,37.7962869 100.793165,39.6666667 C101.321945,41.5370464 102.06894,43.0879568 103.034173,44.3194444 C103.999405,45.5509321 105.107308,46.4722192 106.357914,47.0833333 C107.608519,47.6944475 108.980808,48 110.47482,48 C112.388499,48 114.146874,47.4722275 115.75,46.4166667 C117.353126,45.3611058 118.628892,43.7314925 119.577338,41.5277778 C120.525784,39.3240631 121,36.6111272 121,33.3888889 Z M149.759392,38.6109993 L142.703936,38.6109993 L142.703936,50.0228035 C142.703936,51.6543788 142.340791,52.891791 141.61449,53.7350771 C140.88819,54.5783633 139.971681,55 138.864937,55 C137.706315,55 136.772514,54.5829463 136.063506,53.7488263 C135.354499,52.9147063 135,51.6910432 135,50.0778001 L135,19.0046948 C135,17.2081287 135.389084,15.9248865 136.167263,15.1549296 C136.945442,14.3849727 138.181864,14 139.876565,14 L149.759392,14 C152.681887,14 154.929927,14.2383164 156.503578,14.7149564 C158.059936,15.1732641 159.404437,15.9340434 160.53712,16.9973172 C161.669803,18.0605911 162.53011,19.3621653 163.118068,20.9020791 C163.706026,22.4419929 164,24.17437 164,26.0992622 C164,30.205699 162.80681,33.3175615 160.420394,35.434943 C158.033977,37.5523245 154.480346,38.6109993 149.759392,38.6109993 Z M148,20 L143,20 L143,32 L148,32 C149.750009,32 151.212494,31.8035734 152.3875,31.4107143 C153.562506,31.0178552 154.45833,30.3750045 155.075,29.4821429 C155.69167,28.5892813 156,27.4196501 156,25.9732143 C156,24.2410628 155.525005,22.8303626 154.575,21.7410714 C153.508328,20.5803513 151.316683,20 148,20 Z M194.79115,20.2482947 L177.622124,20.2482947 L177.622124,30.0709413 L193.430973,30.0709413 C194.594401,30.0709413 195.462681,30.3483374 196.035841,30.9031378 C196.609,31.4579382 196.895575,32.1900819 196.895575,33.0995907 C196.895575,34.0090996 196.613277,34.7503382 196.048673,35.3233288 C195.484068,35.8963194 194.61151,36.1828104 193.430973,36.1828104 L177.622124,36.1828104 L177.622124,47.5607094 L195.381416,47.5607094 C196.579062,47.5607094 197.48156,47.8562954 198.088938,48.4474761 C198.696316,49.0386569 199,49.8253703 199,50.8076398 C199,51.7535291 198.696316,52.5220525 198.088938,53.1132333 C197.48156,53.7044141 196.579062,54 195.381416,54 L174.670796,54 C173.011201,54 171.81785,53.6089171 171.090708,52.8267394 C170.363566,52.0445618 170,50.7803634 170,49.0341064 L170,18.9658936 C170,17.8017222 170.162535,16.8512997 170.487611,16.1145975 C170.812686,15.3778954 171.321678,14.8412932 172.014602,14.5047749 C172.707526,14.1682566 173.592915,14 174.670796,14 L194.79115,14 C196.005906,14 196.908404,14.286491 197.498673,14.8594816 C198.088941,15.4324722 198.384071,16.1828057 198.384071,17.1105048 C198.384071,18.056394 198.088941,18.8158225 197.498673,19.3888131 C196.908404,19.9618037 196.005906,20.2482947 194.79115,20.2482947 Z M214.98859,17.8139842 L229.880196,41.1807388 L229.880196,17.5976253 C229.880196,16.0650759 230.197498,14.9156811 230.832111,14.1494063 C231.466724,13.3831316 232.323005,13 233.400978,13 C234.513725,13 235.391738,13.3831316 236.035045,14.1494063 C236.678351,14.9156811 237,16.0650759 237,17.5976253 L237,48.780343 C237,52.2601317 235.609088,54 232.827221,54 C232.131754,54 231.505844,53.8963291 230.94947,53.6889842 C230.393097,53.4816392 229.871505,53.1525968 229.384678,52.701847 C228.897851,52.2510971 228.445805,51.7237277 228.028525,51.119723 C227.611245,50.5157182 227.193971,49.8982002 226.776691,49.2671504 L212.250204,26.1708443 L212.250204,49.4023747 C212.250204,50.9168941 211.911169,52.0617815 211.233089,52.8370712 C210.555009,53.612361 209.685689,54 208.625102,54 C207.529742,54 206.651728,53.6078535 205.991035,52.8235488 C205.330342,52.0392441 205,50.8988641 205,49.4023747 L205,18.8146438 C205,17.5164843 205.139091,16.4978049 205.417278,15.7585752 C205.747625,14.9472255 206.295296,14.2846332 207.06031,13.7707784 C207.825323,13.2569236 208.651177,13 209.537897,13 C210.233364,13 210.828848,13.1171932 211.324368,13.3515831 C211.819888,13.585973 212.254549,13.9014932 212.628362,14.298153 C213.002175,14.6948129 213.384676,15.20866 213.775876,15.8397098 L214.575658,17.137862 C214.711853,17.3602304 214.849497,17.5856043 214.98859,17.8139842 Z M253.609287,17.8680739 L253.609287,31.7691293 L268.546037,15.3258575 C269.263414,14.5325378 269.87403,13.9465718 270.377902,13.567942 C270.881775,13.1893121 271.552171,13 272.389111,13 C273.482258,13 274.366156,13.3380573 275.040833,14.0141821 C275.715509,14.6903068 276.052842,15.5151666 276.052842,16.4887863 C276.052842,17.6607359 275.480657,18.823653 274.336269,19.9775726 L265.08727,29.2269129 L275.745396,45.3456464 C276.496935,46.463506 277.06058,47.4416185 277.436349,48.2800132 C277.812118,49.1184079 278,49.9342528 278,50.7275726 C278,51.6110422 277.671207,52.3773055 277.013611,53.0263852 C276.356015,53.675465 275.463576,54 274.336269,54 C273.277283,54 272.414735,53.7611062 271.748599,53.2833113 C271.082463,52.8055165 270.518817,52.1699688 270.057646,51.3766491 L269.404323,50.2407649 C269.19936,49.8801677 269.007207,49.5376006 268.827862,49.2130607 L259.835068,34.6088391 L253.609287,40.9102902 L253.609287,49.1048813 C253.609287,50.7636407 253.250604,51.9941693 252.533227,52.796504 C251.815849,53.5988387 250.89352,54 249.766213,54 C249.117157,54 248.493731,53.8197028 247.895917,53.4591029 C247.298102,53.098503 246.836938,52.6117005 246.51241,51.9986807 C246.273284,51.4938409 246.128103,50.9078749 246.076861,50.2407652 L246.051453,49.8473848 C246.017151,49.2130603 246,48.3795926 246,47.3469657 L246,17.8680739 C246,16.2453745 246.337333,15.0283682 247.01201,14.2170185 C247.686686,13.4056688 248.604745,13 249.766213,13 C250.910601,13 251.8372,13.4011613 252.546037,14.203496 C253.254874,15.0058307 253.609287,16.2273445 253.609287,17.8680739 Z M284,36.9346966 L284,17.8680739 C284,16.2453745 284.350361,15.0283682 285.051095,14.2170185 C285.751828,13.4056688 286.673149,13 287.815085,13 C289.008927,13 289.956201,13.4056688 290.656934,14.2170185 C291.357668,15.0283682 291.708029,16.2453745 291.708029,17.8680739 L291.708029,37.3674142 C291.708029,39.5851034 291.945929,41.4376575 292.421736,42.9251319 C292.897542,44.4126064 293.741005,45.5665087 294.952149,46.3868734 C296.163293,47.2072381 297.85887,47.6174142 300.038929,47.6174142 C303.049488,47.6174142 305.177609,46.7835396 306.423358,45.1157652 C307.669106,43.4479908 308.291971,40.9193221 308.291971,37.5296834 L308.291971,17.8680739 C308.291971,16.2273445 308.638007,15.0058307 309.330089,14.203496 C310.022172,13.4011613 310.947818,13 312.107056,13 C313.266294,13 314.204917,13.4011613 314.922952,14.203496 C315.640988,15.0058307 316,16.2273445 316,17.8680739 L316,36.9346966 C316,40.0358554 315.710195,42.6231207 315.130576,44.6965699 C314.550957,46.7700192 313.456618,48.5910212 311.847526,50.1596306 C310.463362,51.4938501 308.854294,52.4674552 307.020276,53.0804749 C305.186257,53.6934947 303.040834,54 300.583942,54 C297.659893,54 295.142481,53.6709576 293.03163,53.0128628 C290.920779,52.354768 289.19925,51.3360887 287.866991,49.9567942 C286.534732,48.5774997 285.557181,46.8105869 284.934307,44.6560026 C284.311432,42.5014184 284,39.9276755 284,36.9346966 Z M340.98358,54 L329.581281,54 C327.935405,54 326.760403,53.6043696 326.05624,52.8130969 C325.352076,52.0218241 325,50.7621733 325,49.0341064 L325,18.9658936 C325,17.2014464 325.36056,15.9327005 326.081691,15.159618 C326.802822,14.3865355 327.969341,14 329.581281,14 L341.670772,14 C343.45239,14 344.996436,14.1182344 346.302956,14.3547067 C347.609476,14.591179 348.780236,15.0459266 349.815271,15.7189632 C350.697596,16.2828587 351.478103,16.9968124 352.156814,17.8608458 C352.835526,18.7248793 353.353036,19.6798492 353.70936,20.7257844 C354.065683,21.7717196 354.243842,22.8767563 354.243842,24.0409277 C354.243842,28.0427667 352.377413,30.9713413 348.644499,32.8267394 C353.548191,34.5002357 356,37.7562286 356,42.5948158 C356,44.8322076 355.465523,46.8467396 354.396552,48.638472 C353.327581,50.4302045 351.88534,51.7535201 350.069787,52.6084584 C348.932945,53.1177834 347.626444,53.477034 346.150246,53.686221 C344.674048,53.895408 342.951843,54 340.98358,54 Z M339.974194,36 L332,36 L332,48 L340.232258,48 C345.410779,48 348,45.9719829 348,41.9158879 C348,39.8411111 347.329039,38.3364533 345.987097,37.4018692 C344.645155,36.467285 342.640874,36 339.974194,36 Z M332,20 L332,30 L338.787879,30 C340.63459,30 342.061195,29.8153053 343.067736,29.4459103 C344.074277,29.0765153 344.843729,28.3729164 345.376114,27.3350923 C345.79204,26.5963024 346,25.7695736 346,24.8548813 C346,22.9023649 345.342847,21.6051044 344.02852,20.9630607 C342.714194,20.321017 340.709461,20 338.01426,20 L332,20 Z M386.79115,20.2482947 L369.622124,20.2482947 L369.622124,30.0709413 L385.430973,30.0709413 C386.594401,30.0709413 387.462681,30.3483374 388.035841,30.9031378 C388.609,31.4579382 388.895575,32.1900819 388.895575,33.0995907 C388.895575,34.0090996 388.613277,34.7503382 388.048673,35.3233288 C387.484068,35.8963194 386.61151,36.1828104 385.430973,36.1828104 L369.622124,36.1828104 L369.622124,47.5607094 L387.381416,47.5607094 C388.579062,47.5607094 389.48156,47.8562954 390.088938,48.4474761 C390.696316,49.0386569 391,49.8253703 391,50.8076398 C391,51.7535291 390.696316,52.5220525 390.088938,53.1132333 C389.48156,53.7044141 388.579062,54 387.381416,54 L366.670796,54 C365.011201,54 363.81785,53.6089171 363.090708,52.8267394 C362.363566,52.0445618 362,50.7803634 362,49.0341064 L362,18.9658936 C362,17.8017222 362.162535,16.8512997 362.487611,16.1145975 C362.812686,15.3778954 363.321678,14.8412932 364.014602,14.5047749 C364.707526,14.1682566 365.592915,14 366.670796,14 L386.79115,14 C388.005906,14 388.908404,14.286491 389.498673,14.8594816 C390.088941,15.4324722 390.384071,16.1828057 390.384071,17.1105048 C390.384071,18.056394 390.088941,18.8158225 389.498673,19.3888131 C388.908404,19.9618037 388.005906,20.2482947 386.79115,20.2482947 Z" id="OPENKUBE" fill="#443D4E"></path>
        </g>
    </g>
</svg>